<?xml version="1.0" encoding="UTF-8" standalone="no"?>
<!-- Created with Inkscape (http://www.inkscape.org/) -->

<svg
   xmlns:dc="http://purl.org/dc/elements/1.1/"
   xmlns:cc="http://creativecommons.org/ns#"
   xmlns:rdf="http://www.w3.org/1999/02/22-rdf-syntax-ns#"
   xmlns:svg="http://www.w3.org/2000/svg"
   xmlns="http://www.w3.org/2000/svg"
   xmlns:sodipodi="http://sodipodi.sourceforge.net/DTD/sodipodi-0.dtd"
   xmlns:inkscape="http://www.inkscape.org/namespaces/inkscape"
   width="210mm"
   height="297mm"
   viewBox="0 0 744.09448819 1052.3622047"
   id="svg5288"
   version="1.1"
   inkscape:version="0.91 r13725"
   sodipodi:docname="soundoff.svg"
   inkscape:export-filename="/home/grabli66/Workspace/godot-projects/ufofly/sound_off.png"
   inkscape:export-xdpi="144.77832"
   inkscape:export-ydpi="144.77832">
  <defs
     id="defs5290">
    <filter
       inkscape:collect="always"
       style="color-interpolation-filters:sRGB"
       id="filter5887"
       x="-0.0087485624"
       width="1.0174971"
       y="-0.019097756"
       height="1.0381955">
      <feGaussianBlur
         inkscape:collect="always"
         stdDeviation="0.39759636"
         id="feGaussianBlur5889" />
    </filter>
  </defs>
  <sodipodi:namedview
     id="base"
     pagecolor="#ffffff"
     bordercolor="#666666"
     borderopacity="1.0"
     inkscape:pageopacity="0.0"
     inkscape:pageshadow="2"
     inkscape:zoom="0.49497475"
     inkscape:cx="-581.6822"
     inkscape:cy="681.23825"
     inkscape:document-units="px"
     inkscape:current-layer="layer1"
     showgrid="false"
     inkscape:window-width="1920"
     inkscape:window-height="1027"
     inkscape:window-x="0"
     inkscape:window-y="0"
     inkscape:window-maximized="1" />
  <metadata
     id="metadata5293">
    <rdf:RDF>
      <cc:Work
         rdf:about="">
        <dc:format>image/svg+xml</dc:format>
        <dc:type
           rdf:resource="http://purl.org/dc/dcmitype/StillImage" />
        <dc:title></dc:title>
      </cc:Work>
    </rdf:RDF>
  </metadata>
  <g
     inkscape:label="Layer 1"
     inkscape:groupmode="layer"
     id="layer1">
    <g
       id="g5891"
       inkscape:export-filename="/home/grabli66/Workspace/godot-projects/ufofly/sound_off.png"
       inkscape:export-xdpi="144.64192"
       inkscape:export-ydpi="144.64192">
      <rect
         inkscape:export-ydpi="90"
         inkscape:export-xdpi="90"
         inkscape:export-filename="/home/grabli66/Workspace/godot-projects/ufofly/sound_off.png"
         style="opacity:1;fill:#000000;fill-opacity:1;stroke:none;stroke-width:3;stroke-miterlimit:4;stroke-dasharray:none;stroke-opacity:1"
         id="rect5850"
         width="124.32799"
         height="124.07545"
         x="182.31458"
         y="307.53314"
         ry="9.1847105" />
      <rect
         inkscape:export-ydpi="90"
         inkscape:export-xdpi="90"
         inkscape:export-filename="/home/grabli66/Workspace/godot-projects/ufofly/sound_off.png"
         ry="8.9732103"
         y="301.81885"
         x="183.84776"
         height="121.21831"
         width="121.21831"
         id="rect5838"
         style="opacity:1;fill:#ff3434;fill-opacity:1;stroke:#000000;stroke-width:3;stroke-miterlimit:4;stroke-dasharray:none;stroke-opacity:1" />
      <path
         inkscape:export-ydpi="90"
         inkscape:export-xdpi="90"
         inkscape:export-filename="/home/grabli66/Workspace/godot-projects/ufofly/sound_off.png"
         sodipodi:nodetypes="csssscssssc"
         inkscape:connector-curvature="0"
         id="path5860"
         d="m 185.26706,361.97911 c 0,0 21.36001,-6.47069 32.42703,-7.20229 10.58913,-0.70001 21.22089,1.20807 31.71435,2.74372 7.80804,1.14266 15.26686,4.61173 23.16218,4.80153 6.61774,0.15909 13.06203,-2.08044 19.59876,-3.08669 3.79881,-0.58478 11.40291,-1.62909 11.40291,-1.62909 0,0 0.0576,51.49929 -0.0901,57.44683 -0.0641,2.58608 -3.01565,6.50514 -5.70145,6.60209 -8.64667,0.31212 -98.34397,0.18301 -105.82929,-0.17148 -2.52226,-0.11944 -7.06689,-2.88558 -7.04074,-5.31597 0.13852,-12.87139 0.35634,-54.18865 0.35634,-54.18865 z"
         style="fill:#000000;fill-opacity:0.23417722;fill-rule:evenodd;stroke:none;stroke-width:1px;stroke-linecap:butt;stroke-linejoin:miter;stroke-opacity:1" />
      <g
         inkscape:export-ydpi="90"
         inkscape:export-xdpi="90"
         inkscape:export-filename="/home/grabli66/Workspace/godot-projects/ufofly/sound_off.png"
         style="fill:#ffffff;stroke:#000000;stroke-opacity:1;stroke-width:12.03627686;stroke-miterlimit:4;stroke-dasharray:none"
         id="g3"
         transform="matrix(0.16616434,0,0,0.16616434,207.68419,321.56119)">
        <g
           style="fill:#ffffff;stroke:#000000;stroke-opacity:1;stroke-width:12.03627686;stroke-miterlimit:4;stroke-dasharray:none"
           id="volume-off">
          <path
             style="fill:#ffffff;stroke:#000000;stroke-opacity:1;stroke-width:12.03627686;stroke-miterlimit:4;stroke-dasharray:none"
             id="path6"
             d="m 345.525,229.5 c 0,-45.9 -25.5,-84.15 -63.75,-102 l 0,56.1 63.75,63.75 c 0,-7.65 0,-12.75 0,-17.85 z m 63.75,0 c 0,22.95 -5.1,45.9 -12.75,66.3 l 38.25,38.25 c 17.85,-30.6 25.5,-68.85 25.5,-107.1 0,-109.65 -76.5,-201.45 -178.5,-224.4 l 0,53.55 c 73.95,25.5 127.5,91.8 127.5,173.4 z M 34.425,0 1.275,33.15 121.125,153 l -119.85,0 0,153 102,0 127.5,127.5 0,-170.85 109.65,109.65 c -17.851,12.75 -35.7,22.95 -58.65,30.601 l 0,53.55 c 35.7,-7.65 66.3,-22.95 94.35,-45.9 l 51,51 33.15,-33.149 -229.5,-229.5 L 34.425,0 Z m 196.35,25.5 -53.55,53.55 53.55,53.55 0,-107.1 z"
             inkscape:connector-curvature="0" />
        </g>
      </g>
      <path
         inkscape:export-ydpi="90"
         inkscape:export-xdpi="90"
         inkscape:export-filename="/home/grabli66/Workspace/godot-projects/ufofly/sound_off.png"
         sodipodi:nodetypes="scsscssscs"
         inkscape:connector-curvature="0"
         id="path5881"
         d="m 290.41886,305.48066 c 1.27474,-0.11712 4.04061,-2.0203 4.04061,-2.0203 0,0 -92.977,-0.14797 -103.0987,-0.0632 -2.8133,0.0236 -5.49597,2.69036 -5.74524,5.4927 -0.51521,5.79214 0,44.44671 0,44.44671 0,0 1.47839,-0.60626 1.51523,-1.26269 0.71772,-12.78707 2.07419,-28.82773 2.52538,-35.35534 0.27102,-3.92102 4.15895,-8.33398 8.08122,-8.58629 14.466,-0.93056 61.61931,-1.51523 61.61931,-1.51523 0,0 19.57532,-0.0809 31.06219,-1.13636 z"
         style="fill:#ffffff;fill-opacity:1;fill-rule:evenodd;stroke:none;stroke-width:1px;stroke-linecap:butt;stroke-linejoin:miter;stroke-opacity:1;filter:url(#filter5887)" />
      <circle
         inkscape:export-ydpi="90"
         inkscape:export-xdpi="90"
         inkscape:export-filename="/home/grabli66/Workspace/godot-projects/ufofly/sound_off.png"
         r="4.4642859"
         cy="312.18362"
         cx="194.46428"
         id="path5852"
         style="opacity:1;fill:#000000;fill-opacity:1;stroke:none;stroke-width:3;stroke-miterlimit:4;stroke-dasharray:none;stroke-opacity:1" />
      <circle
         inkscape:export-ydpi="90"
         inkscape:export-xdpi="90"
         inkscape:export-filename="/home/grabli66/Workspace/godot-projects/ufofly/sound_off.png"
         style="opacity:1;fill:#000000;fill-opacity:1;stroke:none;stroke-width:3;stroke-miterlimit:4;stroke-dasharray:none;stroke-opacity:1"
         id="circle5854"
         cx="294.82141"
         cy="312.18362"
         r="4.4642859" />
      <circle
         inkscape:export-ydpi="90"
         inkscape:export-xdpi="90"
         inkscape:export-filename="/home/grabli66/Workspace/godot-projects/ufofly/sound_off.png"
         r="4.4642859"
         cy="410.75507"
         cx="294.82141"
         id="circle5856"
         style="opacity:1;fill:#000000;fill-opacity:1;stroke:none;stroke-width:3;stroke-miterlimit:4;stroke-dasharray:none;stroke-opacity:1" />
      <circle
         inkscape:export-ydpi="90"
         inkscape:export-xdpi="90"
         inkscape:export-filename="/home/grabli66/Workspace/godot-projects/ufofly/sound_off.png"
         style="opacity:1;fill:#000000;fill-opacity:1;stroke:none;stroke-width:3;stroke-miterlimit:4;stroke-dasharray:none;stroke-opacity:1"
         id="circle5858"
         cx="193.74998"
         cy="410.75507"
         r="4.4642859" />
    </g>
  </g>
</svg>
